<?xml version="1.0" encoding="UTF-8" standalone="no"?>
<!-- Created with Inkscape (http://www.inkscape.org/) -->
<svg
   xmlns:svg="http://www.w3.org/2000/svg"
   xmlns="http://www.w3.org/2000/svg"
   version="1.0"
   width="290"
   height="660"
   id="svg2">
  <defs
     id="defs4" />
  <g
     transform="translate(-465.225,-178.19375)"
     id="g2237"
     style="fill:#efe5c5;fill-rule:evenodd;stroke:#000000;stroke-width:0.30000001;stroke-linecap:square">
    <path
       d="M 716.5,224.90625 L 710,240.78125 L 704.375,245.84375 L 700.9375,254.90625 L 697.8125,264.09375 L 696.3125,268.34375 L 703.6875,283.84375 L 703.0625,287.65625 L 701.1875,295.71875 L 703.8125,298.90625 L 704.25,305.78125 L 701.9375,307.46875 L 696.4375,309.96875 L 691.5625,314.71875 L 690.0625,315.03125 L 685.125,311.34375 L 680.125,313.28125 L 673.875,329.34375 L 671.125,333.84375 L 669.5,337.40625 L 671.9375,348.34375 L 672.1875,349.59375 L 669.125,352.53125 L 663.5625,351.53125 L 662.375,352.21875 L 661.5625,355.71875 L 666.3125,358.59375 L 683.875,365.71875 L 694.5,366.84375 L 695,368.59375 L 698.9375,370.65625 L 700.125,367.46875 L 699.0625,363.03125 L 700.75,361.71875 L 701,360.34375 L 696.4375,357.46875 L 697.25,356.09375 L 700.125,354.90625 L 703.25,355.09375 L 705.375,354.15625 L 706.5625,351.90625 L 703.9375,349.21875 L 707.1875,349.03125 L 709.3125,348.90625 L 709.1875,346.96875 L 710.25,346.46875 L 712.6875,347.15625 L 713.625,346.65625 L 712.4375,344.65625 L 711.875,342.34375 L 711.3125,339.65625 L 711.0625,336.34375 L 711.5,333.28125 L 713.375,332.34375 L 715,334.65625 L 715.0625,336.34375 L 717.25,336.15625 L 719.125,338.40625 L 720.5625,338.90625 L 720.4375,337.34375 L 718.375,335.21875 L 717.625,331.34375 L 718.1875,330.65625 L 719.8125,331.59375 L 721.1875,334.90625 L 724.8125,336.28125 L 726.875,338.03125 L 727.6875,334.34375 L 728.4375,332.96875 L 729.6875,333.46875 L 732.625,334.40625 L 733.4375,332.21875 L 735.625,333.21875 L 736.9375,332.65625 L 737.1875,331.40625 L 738.5,331.46875 L 740.25,332.78125 L 746.0625,331.53125 L 743.125,324.59375 L 742.3125,321.84375 L 740.5625,319.09375 L 740.5625,317.90625 L 739.9375,317.21875 L 739.9375,315.65625 L 738.5,315.59375 L 735.875,314.78125 L 733.375,309.09375 L 734,304.96875 L 732.875,303.34375 L 732.875,302.09375 L 734.125,301.21875 L 734.125,299.71875 L 735.5625,299.15625 L 735.375,297.65625 L 736.5,296.21875 L 736.125,293.03125 L 736.375,291.40625 L 735.875,287.71875 L 736.0625,286.40625 L 737.1875,286.71875 L 737.3125,284.96875 L 736.5,283.34375 L 734.5,281.03125 L 734.25,279.15625 L 733.125,278.59375 L 732.8125,277.21875 L 731.8125,277.03125 L 729.9375,274.96875 L 729.5625,272.65625 L 727.3125,269.59375 L 727.6875,268.03125 L 727.0625,266.90625 L 727.375,264.84375 L 729.5625,263.96875 L 730.1875,261.46875 L 729.3125,261.15625 L 729.125,259.21875 L 729.5625,257.59375 L 728.3125,256.34375 L 727.6875,257.15625 L 725,256.03125 L 724.4375,256.84375 L 722.625,255.34375 L 723.75,252.96875 L 723.125,251.71875 L 724,251.71875 L 724.3125,248.78125 L 722.6875,246.21875 L 722.5,241.40625 L 722,239.65625 L 722.4375,236.53125 L 724.375,235.46875 L 723.875,232.84375 L 722.375,232.65625 L 721.8125,230.90625 L 720.75,230.90625 L 720.375,229.65625 L 719.125,229.65625 L 717.6875,226.15625 L 716.5,224.90625 z"
       id="Norrbotten" />
    <path
       d="M 667,188.34375 L 659.125,189.78125 L 662.9375,195.03125 L 663.6875,200.09375 L 662.3125,206.15625 L 660,209.90625 L 657.9375,211.90625 L 663.0625,214.34375 L 657.875,220.90625 L 641.5625,215.28125 L 635.125,216.34375 L 631.5625,213.21875 L 626.75,215.53125 L 626.625,221.65625 L 628.3125,231.46875 L 624.8125,240.53125 L 624.375,242.03125 L 619.75,238.59375 L 613.375,235.34375 L 611.75,238.46875 L 604.375,244.03125 L 603.375,244.96875 L 600.3125,258.40625 L 598.375,262.21875 L 594.5,262.96875 L 593,266.96875 L 598,275.71875 L 598.6875,278.65625 L 597.8125,285.59375 L 592.9375,289.84375 L 591,292.21875 L 584.3125,305.21875 L 579.75,310.46875 L 581.125,316.53125 L 581.4375,319.40625 L 573.0625,325.84375 L 572,325.96875 L 563.625,326.34375 L 565.25,341.15625 L 563.375,346.71875 L 562.3125,357.90625 L 562.125,364.53125 L 559.5625,367.03125 L 558.625,373.03125 L 564.25,378.09375 L 565.3125,378.46875 L 566.1875,379.78125 L 567.5625,381.40625 L 567.4375,383.15625 L 568.9375,385.09375 L 570.625,385.21875 L 572.1875,387.46875 L 572.4375,390.21875 L 576.125,391.96875 L 578.0625,395.03125 L 576.6875,395.96875 L 578.125,396.90625 L 578.625,398.21875 L 579.875,397.84375 L 579.875,399.03125 L 582.25,401.09375 L 583.9375,401.09375 L 586.375,403.09375 L 586.5625,405.96875 L 592,409.59375 L 592.0625,412.96875 L 595.5625,412.59375 L 606.1875,424.46875 L 608.6875,427.15625 L 617.1875,428.78125 L 626.375,430.21875 L 639.9375,424.40625 L 647.75,421.03125 L 655.375,417.53125 L 654.4375,415.59375 L 655.125,415.09375 L 654.25,413.21875 L 652.6875,413.78125 L 650.6875,404.03125 L 656.3125,387.65625 L 645.4375,379.09375 L 657.9375,370.46875 L 661.4375,368.34375 L 662.4375,367.21875 L 666.3125,358.59375 L 661.5625,355.71875 L 662.375,352.21875 L 663.5625,351.53125 L 669.125,352.53125 L 672.1875,349.59375 L 671.9375,348.34375 L 669.5,337.40625 L 671.125,333.84375 L 673.875,329.34375 L 680.125,313.28125 L 685.125,311.34375 L 690.0625,315.03125 L 691.5625,314.71875 L 696.4375,309.96875 L 701.9375,307.46875 L 704.25,305.78125 L 703.8125,298.90625 L 701.1875,295.71875 L 703.0625,287.65625 L 703.6875,283.84375 L 696.3125,268.34375 L 697.8125,264.09375 L 700.9375,254.90625 L 704.375,245.84375 L 710,240.78125 L 716.5,224.90625 L 714.875,225.84375 L 714.125,224.53125 L 714.1875,222.71875 L 714,221.09375 L 712.5,219.84375 L 712.1875,218.21875 L 710.25,217.28125 L 709.6875,217.21875 L 707.8125,216.34375 L 707.75,215.09375 L 706.8125,214.46875 L 706.375,215.28125 L 704.5,214.15625 L 703.8125,213.21875 L 703.25,213.71875 L 699.875,212.21875 L 699.125,213.09375 L 698.3125,211.71875 L 696.9375,212.09375 L 695.125,212.09375 L 693.375,211.59375 L 692.9375,210.40625 L 692.875,208.96875 L 689.875,207.28125 L 687.625,207.34375 L 687.6875,205.84375 L 685.75,204.40625 L 683.8125,203.84375 L 682.375,203.15625 L 682,200.21875 L 680.9375,199.71875 L 680,200.28125 L 678.75,197.96875 L 674.6875,194.46875 L 673.3125,194.71875 L 671.9375,193.09375 L 672.75,192.03125 L 673.0625,191.15625 L 672.0625,190.71875 L 670.5625,188.90625 L 667,188.34375 z M 611.375,313.03125 L 615.75,315.15625 L 617.8125,317.65625 L 620.125,319.96875 L 622.1875,322.28125 L 625.1875,323.78125 L 626.3125,326.53125 L 628.125,328.28125 L 629.8125,327.46875 L 630.9375,328.78125 L 630.25,329.84375 L 627.5,330.40625 L 628.4375,333.34375 L 627.625,335.84375 L 632.625,341.96875 L 635.0625,341.90625 L 636.5625,342.84375 L 636.25,344.84375 L 637.25,346.03125 L 639.25,347.53125 L 639.125,348.78125 L 634.6875,347.34375 L 633.5,346.59375 L 631.75,347.15625 L 629.75,341.34375 L 626.75,337.03125 L 625.8125,339.65625 L 624.25,339.71875 L 623.8125,336.84375 L 624.5,335.15625 L 624.3125,333.53125 L 622.1875,330.59375 L 624.4375,329.46875 L 626.0625,328.78125 L 623.875,326.65625 L 621.5,324.03125 L 618.5,322.71875 L 618.25,320.59375 L 615.75,317.28125 L 610.875,314.34375 L 611.375,313.03125 z"
       id="Lappland" />
    <path
       d="M 666.3125,358.59375 L 662.4375,367.21875 L 661.4375,368.34375 L 657.9375,370.46875 L 645.4375,379.09375 L 656.3125,387.65625 L 650.6875,404.03125 L 652.6875,413.78125 L 654.25,413.21875 L 655.125,415.09375 L 654.4375,415.59375 L 655.375,417.53125 L 659.3125,420.15625 L 659.9375,421.59375 L 662.3125,424.28125 L 663.625,429.21875 L 665.0625,431.40625 L 667,431.96875 L 668.875,434.53125 L 668.875,437.90625 L 668.0625,439.78125 L 668.875,441.71875 L 668.25,442.78125 L 669.0625,444.53125 L 672.1875,440.46875 L 673.9375,440.53125 L 674.1875,438.28125 L 676.375,438.59375 L 679.8125,438.34375 L 680.25,436.90625 L 682.0625,436.84375 L 682.4375,433.46875 L 684.0625,431.28125 L 687.0625,430.71875 L 688.4375,427.96875 L 689.8125,424.28125 L 691.3125,419.09375 L 691.8125,414.59375 L 694.0625,411.53125 L 696.6875,407.90625 L 700.6875,404.53125 L 702.9375,400.21875 L 702.8125,398.59375 L 701.1875,398.84375 L 700.125,395.09375 L 698.25,393.15625 L 695.9375,392.84375 L 694.5,390.46875 L 695.4375,389.15625 L 695.3125,385.28125 L 691.625,385.03125 L 690.375,382.46875 L 692.6875,382.84375 L 695.0625,379.46875 L 694.25,377.09375 L 696.5625,376.09375 L 698.9375,370.65625 L 695,368.59375 L 694.5,366.84375 L 683.875,365.71875 L 666.3125,358.59375 z"
       id="Vasterbotten" />
    <path
       d="M 622.6875,580.78125 L 621.75,589.21875 L 620.75,592.15625 L 619.5625,596.78125 L 617.3125,598.71875 L 612.8125,597.96875 L 611.875,599.09375 L 612.3125,600.09375 L 610.375,601.96875 L 608.625,602.03125 L 609,605.84375 L 608.0625,606.21875 L 608.75,609.40625 L 608.0625,610.84375 L 610.375,612.71875 L 610.625,614.90625 L 610.125,615.96875 L 611.4375,617.78125 L 610.6875,619.71875 L 609.4375,621.46875 L 610.625,623.71875 L 612.4375,626.40625 L 613.375,631.34375 L 615,632.96875 L 616.625,631.96875 L 618.0625,631.59375 L 620.75,632.78125 L 623.6875,635.34375 L 625.75,635.40625 L 625.625,632.96875 L 623.9375,629.46875 L 624.1875,629.03125 L 624.9375,628.65625 L 625.0625,629.46875 L 625.3125,630.09375 L 626,631.03125 L 626.75,632.03125 L 627.5625,632.59375 L 628,632.53125 L 628.3125,632.03125 L 628.625,631.34375 L 628.9375,631.21875 L 629,631.53125 L 629.0625,631.84375 L 628.8125,632.59375 L 628.5,632.84375 L 628.125,633.15625 L 628.0625,633.40625 L 628.1875,633.71875 L 629.0625,634.71875 L 629.25,634.65625 L 629.125,634.34375 L 629.25,634.03125 L 629.5625,633.96875 L 629.75,634.21875 L 629.75,635.15625 L 629.875,635.53125 L 630.25,635.53125 L 630.375,635.21875 L 630.1875,634.90625 L 630.125,634.65625 L 630.4375,634.21875 L 630.9375,634.28125 L 631.4375,634.65625 L 631.875,634.90625 L 631.9375,635.34375 L 632.1875,635.65625 L 632.25,636.40625 L 632.625,636.59375 L 632.9375,636.65625 L 632.9375,636.90625 L 633.1875,636.96875 L 633.4375,636.59375 L 633.4375,635.65625 L 633.625,634.84375 L 633.875,634.78125 L 634.125,635.46875 L 634.5,635.21875 L 634.75,635.46875 L 634.625,635.78125 L 634.5625,635.90625 L 634.5,636.03125 L 634.0625,637.53125 L 634,638.09375 L 634.125,638.46875 L 634.375,638.71875 L 634.625,639.09375 L 635.4375,639.96875 L 636.0625,640.59375 L 637,641.09375 L 637.1875,641.53125 L 637.4375,641.71875 L 637.875,641.84375 L 638.3125,642.28125 L 638.5625,642.21875 L 638.9375,642.09375 L 639.0625,641.59375 L 639.125,641.09375 L 639.1875,640.90625 L 639.3125,640.96875 L 639.75,641.46875 L 640.1875,641.65625 L 640.5625,641.65625 L 641.1875,641.53125 L 641.625,641.46875 L 642.0625,641.90625 L 642.4375,641.96875 L 642.75,641.78125 L 642.75,641.46875 L 642.4375,640.96875 L 641.75,640.46875 L 640.875,639.40625 L 641.5,638.71875 L 641.625,638.15625 L 641.625,637.46875 L 641.75,637.21875 L 642.0625,636.90625 L 641.9375,636.65625 L 642.6875,636.09375 L 642.9375,635.96875 L 643.0625,636.40625 L 643.125,636.65625 L 643.4375,636.65625 L 644,636.34375 L 644.125,636.46875 L 644.125,636.71875 L 644.125,637.15625 L 643.9375,637.28125 L 643.5,637.09375 L 643.3125,637.40625 L 643.25,637.96875 L 643.25,638.46875 L 643.75,638.59375 L 644.125,638.65625 L 644.5,638.84375 L 645.8125,638.71875 L 646.375,638.53125 L 646.5625,638.28125 L 646.375,638.09375 L 645.8125,638.09375 L 645.75,637.96875 L 646,637.78125 L 646.125,637.59375 L 645.75,637.09375 L 645.5625,636.84375 L 645.125,636.90625 L 644.875,636.84375 L 644.75,636.65625 L 644.875,636.40625 L 645.3125,636.34375 L 645.6875,636.53125 L 646.1875,636.40625 L 646.4375,636.15625 L 646.5625,635.78125 L 646.4375,635.53125 L 646.125,635.46875 L 645.8125,635.28125 L 646,635.03125 L 646.375,634.96875 L 646.5625,635.21875 L 646.75,635.34375 L 647.0625,635.21875 L 647.375,635.21875 L 647.5,635.53125 L 647.875,635.46875 L 648.1875,635.53125 L 648.5,635.46875 L 648.9375,634.65625 L 648.9375,634.40625 L 649.0625,634.21875 L 649.5625,634.09375 L 649.9375,633.71875 L 650.25,633.15625 L 650.4375,633.03125 L 651.375,631.96875 L 651.8125,631.90625 L 652,631.59375 L 652.75,631.03125 L 653.4375,630.53125 L 653.9375,630.21875 L 654.8125,629.65625 L 656.0625,627.46875 L 656.375,624.96875 L 659.0625,623.46875 L 662.75,623.71875 L 664.0625,622.78125 L 663.8125,620.71875 L 661.5,620.03125 L 661.375,618.03125 L 663.0625,618.03125 L 663.9375,615.53125 L 662.4375,614.28125 L 660.1875,612.65625 L 658.4375,609.71875 L 657.3125,605.59375 L 656.375,604.90625 L 656.6875,601.90625 L 654.75,600.09375 L 654.5625,602.46875 L 653.875,603.96875 L 652.375,603.53125 L 650.0625,603.03125 L 649.875,600.46875 L 651.3125,600.46875 L 651.9375,599.21875 L 651,597.40625 L 649.0625,595.84375 L 651,595.65625 L 651.3125,594.15625 L 649.6875,593.65625 L 648,590.90625 L 647.0625,586.84375 L 646.25,587.28125 L 646.1875,589.28125 L 647.1875,593.28125 L 646.375,594.28125 L 644.125,593.65625 L 640.125,590.21875 L 637.625,586.96875 L 637.3125,583.96875 L 635.4375,582.71875 L 632.75,583.96875 L 631.5,586.15625 L 629.75,586.53125 L 628.5,583.28125 L 628.5,580.78125 L 622.6875,580.78125 z M 660.5,625.78125 L 659.125,626.59375 L 658.0625,628.46875 L 656.875,629.53125 L 657.3125,629.90625 L 659.25,628.40625 L 660.375,628.59375 L 660.5,627.40625 L 661.8125,627.28125 L 661.8125,626.34375 L 660.5,625.78125 z M 654.6875,630.34375 L 654.3125,630.59375 L 654.125,630.84375 L 653.0625,631.46875 L 652.9375,631.90625 L 652.625,632.28125 L 652.4375,632.46875 L 652.4375,632.78125 L 652.25,633.03125 L 652.25,633.15625 L 652.625,633.21875 L 652.8125,633.28125 L 652.6875,633.65625 L 652.4375,634.03125 L 652.125,633.90625 L 652.0625,633.59375 L 651.8125,633.53125 L 651.5,633.65625 L 651.375,634.09375 L 651.5625,634.21875 L 651.6875,634.40625 L 651.625,634.90625 L 651.6875,635.21875 L 652.0625,635.46875 L 652.1875,635.78125 L 652.1875,636.34375 L 652.1875,636.65625 L 652.5625,636.59375 L 652.8125,636.15625 L 652.875,635.59375 L 652.9375,635.34375 L 653.25,635.34375 L 653.4375,635.15625 L 653.4375,634.53125 L 653.25,633.96875 L 653.375,633.59375 L 653.5625,633.40625 L 653.875,633.46875 L 654.25,633.28125 L 654.4375,632.78125 L 654.8125,632.15625 L 655,631.84375 L 655.375,631.78125 L 655.375,631.53125 L 655.125,631.40625 L 655.0625,630.90625 L 654.75,630.90625 L 654.75,630.71875 L 654.9375,630.46875 L 654.6875,630.34375 z M 660.375,635.40625 L 659.9375,635.59375 L 659.625,635.96875 L 659.4375,636.28125 L 659.4375,636.59375 L 659.5625,637.03125 L 659.5,637.34375 L 659.25,637.71875 L 659.1875,638.09375 L 659.375,638.21875 L 659.75,637.96875 L 659.8125,637.71875 L 659.9375,637.46875 L 660.3125,637.15625 L 660.625,636.78125 L 660.6875,636.28125 L 660.9375,636.21875 L 661.125,636.03125 L 661.125,635.65625 L 661,635.40625 L 660.6875,635.40625 L 660.375,635.40625 z M 646.9375,636.09375 L 646.75,636.34375 L 646.6875,636.65625 L 646.5625,637.09375 L 646.875,637.34375 L 647.3125,636.84375 L 647.875,636.71875 L 647.8125,636.53125 L 647.4375,636.40625 L 647.1875,636.09375 L 646.9375,636.09375 z M 630.1875,636.21875 L 629.875,636.40625 L 629.8125,636.53125 L 629.9375,636.78125 L 630,637.28125 L 630.625,638.59375 L 630.8125,639.34375 L 631.25,640.34375 L 631.875,641.28125 L 632.3125,642.03125 L 632.6875,642.03125 L 632.875,642.21875 L 633.1875,642.71875 L 633.875,642.90625 L 634.3125,642.78125 L 634.5,642.40625 L 634.4375,642.03125 L 634.1875,641.78125 L 634.25,641.46875 L 634.25,640.78125 L 634.125,640.21875 L 633.875,639.78125 L 633.8125,639.53125 L 633.125,638.84375 L 633,638.96875 L 633.0625,639.28125 L 632.875,639.40625 L 632.625,639.28125 L 632.3125,638.71875 L 632.375,638.40625 L 632.625,638.28125 L 632.875,638.28125 L 633,638.15625 L 632.5,637.65625 L 632.0625,637.46875 L 631.75,637.65625 L 631.375,637.40625 L 630.875,636.84375 L 630.5625,636.65625 L 630.1875,636.21875 z M 661.4375,636.71875 L 661.1875,636.90625 L 661.125,637.28125 L 660.8125,637.46875 L 661,637.78125 L 660.9375,638.65625 L 661.0625,638.90625 L 661.5,638.90625 L 661.625,638.65625 L 661.5,637.84375 L 661.9375,637.15625 L 661.875,636.84375 L 661.4375,636.71875 z M 650.375,637.09375 L 650.125,637.28125 L 649.875,637.21875 L 649.6875,637.34375 L 649.75,637.53125 L 649.875,637.78125 L 650.1875,637.90625 L 650.3125,638.15625 L 650.4375,638.59375 L 650.4375,638.96875 L 650.3125,639.40625 L 650.25,639.78125 L 650.3125,639.96875 L 650.4375,640.21875 L 650.5625,640.40625 L 650.5625,640.84375 L 650.375,642.03125 L 650.375,642.40625 L 650.6875,642.59375 L 651,642.59375 L 651.8125,643.09375 L 652.3125,642.96875 L 653.5,642.71875 L 654.0625,642.59375 L 654.375,642.21875 L 654.5,641.71875 L 654.5625,641.28125 L 654.3125,640.84375 L 653.8125,640.59375 L 653.125,640.34375 L 652.625,640.46875 L 652.4375,640.15625 L 652.9375,640.03125 L 653.4375,639.96875 L 653.6875,640.03125 L 653.9375,639.96875 L 654.1875,639.78125 L 654.1875,639.46875 L 654,639.21875 L 653.6875,639.21875 L 653.25,639.46875 L 651.6875,638.46875 L 651.3125,637.34375 L 651.1875,637.21875 L 650.6875,637.15625 L 650.375,637.09375 z M 629.4375,637.40625 L 629,637.53125 L 628.6875,637.65625 L 628.3125,637.96875 L 628.375,638.46875 L 628.5,638.90625 L 628.625,639.21875 L 628.875,639.34375 L 629.0625,639.28125 L 629.3125,639.28125 L 629.6875,640.21875 L 629.9375,640.46875 L 630.3125,640.40625 L 630.375,640.78125 L 630.25,641.09375 L 630.5625,641.21875 L 630.6875,641.90625 L 630.625,642.21875 L 630.625,642.59375 L 630.8125,642.84375 L 631.1875,643.03125 L 632.0625,643.46875 L 633.0625,644.28125 L 633.9375,644.21875 L 634.25,644.28125 L 634.4375,644.46875 L 635.125,644.65625 L 635.75,644.34375 L 635.875,644.21875 L 635.75,643.90625 L 635,643.53125 L 635.0625,643.34375 L 634.75,643.28125 L 634.1875,643.53125 L 633.875,643.46875 L 633.25,643.21875 L 632.4375,642.71875 L 631.9375,642.34375 L 631.3125,642.21875 L 630.8125,640.46875 L 629.75,637.40625 L 629.4375,637.40625 z M 627.375,637.84375 L 626.875,638.03125 L 626.8125,638.40625 L 626.875,638.65625 L 626.875,638.96875 L 626.8125,639.21875 L 626.875,639.40625 L 627.3125,639.84375 L 627.5,640.21875 L 627.4375,640.59375 L 627.6875,641.09375 L 628.0625,641.46875 L 628.375,641.53125 L 628.5625,641.21875 L 628.4375,640.71875 L 628.5,640.40625 L 628.625,640.15625 L 628.625,639.78125 L 628.375,639.53125 L 628.0625,638.59375 L 627.75,638.21875 L 627.6875,637.90625 L 627.375,637.84375 z M 642.0625,638.71875 L 641.875,638.84375 L 641.875,639.03125 L 641.9375,639.21875 L 642.25,639.34375 L 642.4375,639.59375 L 642.4375,639.90625 L 642.5,640.15625 L 642.875,640.71875 L 643.375,640.90625 L 643.9375,640.90625 L 644.3125,640.71875 L 644.625,640.53125 L 644.75,640.21875 L 644.625,640.03125 L 644.5625,639.90625 L 644.6875,639.78125 L 645.0625,639.71875 L 645.25,639.65625 L 645.1875,639.40625 L 644.8125,639.28125 L 644.5,639.46875 L 644.25,639.40625 L 643.5625,639.28125 L 642.9375,638.96875 L 642.4375,638.78125 L 642.0625,638.71875 z M 655.25,638.84375 L 654.5,639.15625 L 655.1875,640.28125 L 655.375,640.90625 L 655.375,641.40625 L 655.3125,642.21875 L 655.5,642.34375 L 655.75,642.21875 L 656.3125,641.84375 L 656.6875,641.53125 L 656.8125,641.09375 L 656.8125,640.46875 L 656.75,639.96875 L 656.5,639.46875 L 655.875,639.03125 L 655.625,639.28125 L 655.25,638.84375 z M 660.625,639.53125 L 660.4375,639.59375 L 660.1875,639.90625 L 660.0625,640.21875 L 659.9375,640.84375 L 659.875,641.46875 L 659.6875,641.71875 L 660.5,641.78125 L 660.6875,641.59375 L 660.4375,641.21875 L 660.375,640.96875 L 660.625,640.40625 L 660.625,640.09375 L 660.9375,639.90625 L 660.875,639.65625 L 660.625,639.53125 z M 646.6875,639.96875 L 645.6875,640.03125 L 645.625,640.40625 L 645.375,640.53125 L 644.8125,640.84375 L 644.75,641.96875 L 644.8125,642.28125 L 644.8125,642.46875 L 645.125,642.65625 L 645.6875,642.71875 L 646.1875,642.46875 L 646.5,642.15625 L 646.625,641.84375 L 646.6875,641.09375 L 647.3125,641.21875 L 647.625,641.34375 L 648.0625,641.28125 L 648.3125,641.40625 L 648.125,641.71875 L 647.75,641.96875 L 647.625,642.15625 L 647.8125,642.84375 L 647.625,643.03125 L 647.4375,643.21875 L 647.75,643.40625 L 648.5625,643.46875 L 649,644.15625 L 649.4375,644.34375 L 649.6875,645.03125 L 650.3125,645.40625 L 650.8125,645.46875 L 651.125,646.15625 L 652.125,646.40625 L 652.375,646.21875 L 652.6875,645.90625 L 653.0625,645.71875 L 653.0625,645.21875 L 653.6875,645.03125 L 653.9375,644.71875 L 654.3125,644.59375 L 654.75,644.46875 L 654.6875,644.21875 L 655.8125,642.84375 L 655.6875,642.59375 L 654.0625,643.09375 L 652.375,643.34375 L 652.375,643.59375 L 652.6875,643.84375 L 652.5625,644.09375 L 652.375,644.09375 L 651.625,643.78125 L 651.375,643.46875 L 650.875,643.09375 L 650.25,642.90625 L 649.5625,643.09375 L 649.3125,642.84375 L 649.4375,642.40625 L 649.875,641.71875 L 649.9375,641.53125 L 649.75,641.34375 L 650.0625,641.15625 L 650.0625,640.84375 L 649.3125,640.15625 L 648.8125,639.96875 L 647.9375,640.09375 L 647.625,639.96875 L 647.125,640.03125 L 646.6875,639.96875 z M 635.6875,640.65625 L 635.1875,640.71875 L 635.0625,640.96875 L 634.875,641.40625 L 634.9375,641.71875 L 635.5625,642.46875 L 635.875,642.96875 L 636.25,643.03125 L 636.625,642.71875 L 636.6875,642.21875 L 636.75,642.03125 L 636.9375,641.90625 L 636.875,641.59375 L 636.625,641.59375 L 636.375,641.40625 L 636.0625,640.84375 L 635.6875,640.65625 z M 658,642.34375 L 657.6875,642.46875 L 657.0625,642.96875 L 656.75,643.21875 L 656.5625,643.78125 L 656.5625,644.21875 L 656.8125,644.21875 L 657.1875,644.09375 L 657.5625,644.28125 L 657.875,643.96875 L 658,643.34375 L 658.5,642.78125 L 658,642.34375 z M 656.1875,646.21875 L 655.9375,646.53125 L 655.75,646.84375 L 655.25,647.78125 L 655.1875,648.09375 L 655.5625,647.78125 L 655.9375,647.53125 L 656.4375,647.34375 L 656.8125,647.21875 L 657.125,647.03125 L 657.25,646.59375 L 656.9375,646.59375 L 656.3125,646.90625 L 656.4375,646.34375 L 656.1875,646.21875 z"
       id="Uppland" />
    <path
       d="M 616,634.65625 L 614.9375,634.96875 L 614.5625,636.59375 L 611.875,635.40625 L 610.625,635.96875 L 608.6875,636.15625 L 606.375,636.90625 L 604.25,636.46875 L 601.9375,636.96875 L 597.5,637.28125 L 597.375,638.59375 L 598.5,639.46875 L 598.25,640.59375 L 595.3125,641.28125 L 593.3125,640.96875 L 592,640.46875 L 590.3125,641.96875 L 588.625,643.96875 L 592,644.21875 L 593.6875,645.46875 L 598.1875,643.96875 L 599.1875,644.09375 L 598.3125,645.59375 L 596.375,646.40625 L 593.8125,646.65625 L 592.1875,647.34375 L 589.5625,648.28125 L 589.375,649.96875 L 588.25,651.09375 L 586.625,650.90625 L 586.6875,652.28125 L 584.4375,652.59375 L 583.1875,654.65625 L 582.6875,656.71875 L 583.3125,657.71875 L 585.9375,658.78125 L 587.1875,656.09375 L 588.375,656.71875 L 588.8125,657.90625 L 591.125,659.46875 L 593.4375,660.53125 L 594.5,662.59375 L 596.1875,664.46875 L 597.625,664.84375 L 598.25,665.78125 L 601.0625,671.28125 L 602.26161,671.81757 L 602.96875,673.375 L 606.19699,674.18067 L 608.70747,674.60041 L 610.3125,674.78125 L 612,674.96875 L 614,675.15625 L 616.625,674.21875 L 616.5625,673.21875 L 614.5625,672.65625 L 615.625,672.09375 L 617,672.28125 L 618.5,673.28125 L 619.5,671.59375 L 618.3125,670.46875 L 616.5625,668.90625 L 618.1875,668.28125 L 619.375,669.53125 L 620.625,669.46875 L 623.0625,670.03125 L 624.0625,668.84375 L 625.625,669.15625 L 625.9375,667.09375 L 626.625,667.21875 L 627.0625,667.34375 L 628.3125,667.15625 L 627.625,666.40625 L 628,663.46875 L 629.625,664.78125 L 630.375,664.21875 L 629.8125,662.96875 L 631,661.71875 L 631.375,659.90625 L 631.875,660.03125 L 632.3125,660.21875 L 632.5625,659.96875 L 632.75,659.09375 L 632.6875,657.65625 L 632.5,655.40625 L 632.4375,654.84375 L 632.0625,654.59375 L 631.75,654.84375 L 631.625,655.65625 L 631.5625,656.28125 L 631.1875,657.15625 L 630.9375,657.34375 L 630.75,656.71875 L 630.6875,654.84375 L 631.125,654.09375 L 631.0625,653.84375 L 630.75,653.59375 L 630.75,653.21875 L 630.9375,653.03125 L 631.5625,652.53125 L 631.4375,652.34375 L 631.625,652.03125 L 631.8125,652.09375 L 632.0625,652.03125 L 632.1875,651.84375 L 632.1875,651.34375 L 632.0625,650.65625 L 631.625,649.90625 L 631.5625,649.53125 L 631.8125,649.28125 L 632,649.46875 L 632.125,649.84375 L 632.25,650.34375 L 632.4375,650.59375 L 632.6875,651.90625 L 632.4375,652.71875 L 632.4375,653.34375 L 632.5,654.09375 L 632.875,654.15625 L 633.5625,653.90625 L 633.625,653.34375 L 633.4375,652.46875 L 633.5625,652.15625 L 634.4375,651.59375 L 634.375,652.03125 L 634.5625,652.65625 L 634.25,652.84375 L 634.0625,653.40625 L 634.1875,653.90625 L 633.9375,654.28125 L 633.625,654.84375 L 633.625,655.34375 L 633.9375,656.03125 L 634.1875,657.40625 L 634,657.90625 L 633.9375,658.28125 L 634.25,658.65625 L 634.1875,660.40625 L 634.0625,660.71875 L 634.25,661.15625 L 634.8125,661.71875 L 635.375,662.84375 L 635.9375,664.03125 L 635.875,664.78125 L 635.5625,665.28125 L 635.125,665.84375 L 635.125,666.34375 L 636.625,665.84375 L 637.1875,663.59375 L 637.5625,663.21875 L 637.9375,662.03125 L 638.4375,661.40625 L 639,661.03125 L 639.25,659.96875 L 639,658.46875 L 639.375,657.34375 L 639.4375,656.90625 L 639.5625,656.40625 L 639.75,656.65625 L 639.875,657.09375 L 640.0625,657.03125 L 640.1875,656.84375 L 640.125,656.46875 L 639.875,655.28125 L 639.9375,655.03125 L 640.25,655.09375 L 640.3125,655.46875 L 640.5625,655.59375 L 640.75,655.34375 L 640.75,654.96875 L 640.9375,654.53125 L 641.3125,654.34375 L 641.875,654.28125 L 642.1875,654.15625 L 642.3125,653.71875 L 642.5,653.40625 L 643.125,653.21875 L 643.25,652.96875 L 644.375,652.53125 L 644.75,652.21875 L 644.875,651.96875 L 644.6875,651.78125 L 644.875,651.40625 L 645.1875,651.21875 L 645.6875,651.15625 L 645.9375,651.34375 L 646,651.53125 L 645.75,651.78125 L 645.5,651.78125 L 645.25,651.96875 L 645.125,652.28125 L 645.3125,652.46875 L 645.25,652.65625 L 645,652.78125 L 644.625,653.15625 L 644.625,653.40625 L 644.6875,653.65625 L 645,653.53125 L 645.3125,653.15625 L 645.875,652.84375 L 647.0625,652.40625 L 647.4375,652.03125 L 647.375,651.71875 L 646.25,651.84375 L 646.625,651.15625 L 647.3125,650.84375 L 647.625,650.65625 L 648,650.71875 L 648.1875,650.71875 L 648.75,650.09375 L 649,650.15625 L 649.0625,650.34375 L 649.3125,650.34375 L 649.625,650.15625 L 649.9375,649.96875 L 650.4375,648.78125 L 650.25,648.65625 L 649.875,648.78125 L 649.5,648.90625 L 648.75,648.59375 L 648.4375,648.28125 L 648.625,647.71875 L 649.125,647.40625 L 649.3125,647.15625 L 648.875,646.34375 L 648.5,646.28125 L 648.125,646.15625 L 647.6875,645.65625 L 646.4375,644.78125 L 645.875,644.71875 L 645.6875,644.53125 L 645.625,644.40625 L 645.75,644.21875 L 646.125,644.21875 L 647,644.40625 L 647.4375,644.53125 L 647.6875,644.40625 L 647.625,644.09375 L 647.25,643.96875 L 646.6875,643.84375 L 646.5625,643.53125 L 646.375,643.09375 L 646,642.96875 L 645.5,643.03125 L 644.625,643.03125 L 644.4375,642.78125 L 644.375,642.03125 L 644.375,641.46875 L 644.1875,641.46875 L 643.75,641.71875 L 642.875,642.15625 L 642.375,642.28125 L 641.9375,642.21875 L 641.375,642.15625 L 640.9375,641.96875 L 640.4375,642.09375 L 639.875,642.28125 L 639.375,642.28125 L 639.1875,642.46875 L 638.625,642.59375 L 638.125,642.84375 L 637.6875,643.03125 L 637.3125,643.34375 L 636.75,643.65625 L 636.625,644.15625 L 636.8125,644.40625 L 636.8125,645.71875 L 636.625,646.09375 L 636.4375,645.71875 L 636.25,645.21875 L 635.8125,644.96875 L 634.9375,644.96875 L 634.375,645.09375 L 633.875,644.90625 L 633.375,645.34375 L 632.875,644.84375 L 632.625,644.34375 L 632.0625,644.03125 L 631.375,643.84375 L 631.375,644.15625 L 630.875,644.21875 L 630.625,644.03125 L 630.1875,644.21875 L 630.0625,644.65625 L 630.1875,644.90625 L 630.375,645.09375 L 630.4375,645.40625 L 630.625,646.40625 L 630.9375,647.28125 L 630.875,647.59375 L 630.5,647.53125 L 630.3125,647.15625 L 629.875,646.15625 L 629.5625,645.21875 L 629.3125,644.84375 L 628.75,644.84375 L 626.875,643.84375 L 626.1875,643.03125 L 625.875,643.03125 L 625.3125,642.59375 L 625.0625,642.53125 L 624.875,642.21875 L 624.5,642.34375 L 624.5625,642.71875 L 624.8125,642.96875 L 624.75,644.15625 L 624.875,644.46875 L 625.6875,645.78125 L 625.8125,646.15625 L 625,645.78125 L 624.4375,645.53125 L 623.75,645.53125 L 623.0625,645.78125 L 622.625,645.03125 L 621.9375,643.34375 L 623.1875,642.40625 L 622.9375,640.96875 L 622.25,640.78125 L 623.4375,639.21875 L 622.375,636.90625 L 619.1875,636.15625 L 618.5625,637.15625 L 619.375,639.96875 L 617.625,640.09375 L 616.6875,637.09375 L 617.375,635.46875 L 616,634.65625 z M 650.9375,650.96875 L 650.875,651.03125 L 649.6875,652.46875 L 648.6875,652.90625 L 648.625,653.09375 L 648.8125,653.15625 L 648.8125,653.34375 L 648.1875,654.21875 L 648.25,654.40625 L 648.5625,654.34375 L 648.625,654.53125 L 648.5,654.65625 L 648.3125,654.90625 L 648.125,655.15625 L 648.1875,655.71875 L 648.6875,655.96875 L 649.25,655.78125 L 649.375,656.15625 L 649.6875,656.15625 L 649.9375,655.78125 L 650.0625,654.09375 L 650.6875,653.46875 L 650.6875,652.84375 L 651.25,652.34375 L 651.4375,651.90625 L 650.9375,650.96875 z M 643.8125,655.21875 L 643.125,655.59375 L 642.375,655.59375 L 642.125,655.71875 L 641.9375,656.03125 L 641.9375,656.09375 L 642,656.46875 L 641.9375,656.78125 L 641.4375,657.28125 L 641.375,657.46875 L 641.4375,658.03125 L 641.3125,658.34375 L 641.4375,658.40625 L 641.8125,658.28125 L 642,658.09375 L 642.1875,657.59375 L 642.4375,657.46875 L 642.625,657.65625 L 642.6875,658.03125 L 642.9375,658.21875 L 643.375,658.09375 L 643.625,657.84375 L 643.3125,657.28125 L 643.25,656.90625 L 643.5,656.71875 L 643.75,656.84375 L 643.9375,656.65625 L 643.875,656.28125 L 644.0625,655.90625 L 644.4375,655.84375 L 644.75,655.65625 L 644.875,655.40625 L 644.5625,655.40625 L 643.8125,655.21875 z M 648.3125,657.34375 L 648,657.53125 L 647.75,657.90625 L 647,658.40625 L 646.5625,658.28125 L 645.125,659.15625 L 644.875,659.34375 L 644.1875,659.90625 L 643.625,660.40625 L 643.6875,660.78125 L 643.875,660.71875 L 644.25,660.53125 L 644.625,660.15625 L 644.75,660.34375 L 644.75,660.71875 L 645.4375,660.78125 L 645.6875,660.59375 L 645.9375,660.34375 L 646.25,660.15625 L 646.6875,660.28125 L 647.4375,659.84375 L 647.1875,659.53125 L 646.8125,659.28125 L 647,658.96875 L 648.25,658.21875 L 648.4375,658.03125 L 648.4375,657.53125 L 648.3125,657.34375 z"
       id="Sodermanland" />
    <path
       d="M 608.625,602.03125 L 605.125,602.28125 L 603.9375,602.78125 L 603.875,604.21875 L 601.75,605.65625 L 600.75,607.46875 L 596.4375,607.90625 L 595.5625,607.46875 L 595.9375,605.59375 L 594.4375,604.65625 L 593.1875,604.46875 L 592.4375,602.59375 L 591.1875,602.21875 L 589.5,603.65625 L 586.875,603.03125 L 586.3125,604.53125 L 585.375,605.15625 L 585.4375,606.71875 L 584.1875,609.15625 L 585.25,610.65625 L 584.5,614.03125 L 582.9375,613.40625 L 581.0625,613.28125 L 579.9375,615.78125 L 578.0625,617.90625 L 576.3125,614.71875 L 573.8125,611.84375 L 571.6875,610.21875 L 570.375,608.15625 L 569.25,608.34375 L 565.25,605.59375 L 564,605.71875 L 562.25,606.84375 L 562.875,611.15625 L 555.75,609.96875 L 556.25,612.15625 L 553.4375,613.15625 L 554.1875,614.84375 L 555.4375,615.40625 L 555.0625,618.96875 L 555.5,621.53125 L 554.1875,622.34375 L 555.4375,624.71875 L 555,626.34375 L 555.8125,630.09375 L 555.875,632.84375 L 559.9375,633.96875 L 561.5625,635.21875 L 560.9375,637.96875 L 562.25,640.53125 L 563.4375,639.59375 L 566.9375,639.84375 L 568.3125,638.15625 L 568.40625,635.40625 L 569.98438,635.10938 L 570.59375,637.28125 L 572.32812,636.14062 L 575.07812,637.57812 L 578.25,637.71875 L 581.375,637.90625 L 582.28125,639 L 583.97863,638.8141 L 585.60937,643 L 586.375,643.10937 L 587.25,644.65625 L 588.625,643.96875 L 590.3125,641.96875 L 592,640.46875 L 593.3125,640.96875 L 595.3125,641.28125 L 598.25,640.59375 L 598.5,639.46875 L 597.375,638.59375 L 597.5,637.28125 L 594.125,637.59375 L 593.4375,635.59375 L 596.1875,635.65625 L 597.75,634.71875 L 599.75,635.65625 L 602.5625,634.96875 L 603.5,633.71875 L 605,632.15625 L 604.1875,630.78125 L 605.8125,629.96875 L 607.5,631.15625 L 608.875,633.03125 L 610.75,632.21875 L 611.375,631.15625 L 613.375,631.34375 L 612.4375,626.40625 L 610.625,623.71875 L 609.4375,621.46875 L 610.6875,619.71875 L 611.4375,617.78125 L 610.125,615.96875 L 610.625,614.90625 L 610.375,612.71875 L 608.0625,610.84375 L 608.75,609.40625 L 608.0625,606.21875 L 609,605.84375 L 608.625,602.03125 z"
       id="Vastmanland" />
    <path
       d="M 587.1875,656.09375 L 585.9375,658.78125 L 583.3125,657.71875 L 580.875,660.40625 L 581.75,661.96875 L 580.6875,663.59375 L 578.6875,663.53125 L 578.1875,665.65625 L 577.4375,664.34375 L 576.25,664.90625 L 574.0625,663.59375 L 572.625,665.34375 L 571.3125,665.40625 L 570.1875,666.84375 L 569.25,668.65625 L 568.75,670.40625 L 566.5625,671.65625 L 566.25,674.71875 L 564.5625,676.71875 L 566.25,678.09375 L 567.6875,678.40625 L 568.5,679.15625 L 567,680.09375 L 566.0625,682.40625 L 564.5625,683.09375 L 563.5,681.96875 L 562.4375,682.40625 L 562.375,683.90625 L 559.5625,686.21875 L 559.1875,687.78125 L 558.6875,689.34375 L 559,690.34375 L 558.375,691.34375 L 557.75,694.46875 L 556.375,699.03125 L 558,699.71875 L 561.5,699.15625 L 561.6875,700.59375 L 565.125,699.90625 L 566.0625,698.03125 L 567.25,698.65625 L 568.3125,702.65625 L 568.875,704.15625 L 568,705.21875 L 567.1875,707.15625 L 567.6875,708.96875 L 569.4375,711.09375 L 569.125,712.21875 L 570,715.34375 L 571,717.71875 L 574.5625,717.34375 L 577.8125,718.09375 L 578.125,715.96875 L 578.8125,715.03125 L 580.3125,715.28125 L 580.8125,713.65625 L 582.1875,712.40625 L 581.9375,711.03125 L 584.125,710.53125 L 586.8125,711.40625 L 587.1875,712.90625 L 589,711.96875 L 590.3125,712.90625 L 592.75,710.65625 L 593.9375,710.53125 L 592.75,706.40625 L 593.875,705.53125 L 591.875,702.59375 L 592.25,700.15625 L 594.5625,700.5 L 596.125,694.34375 L 598.75,695.03125 L 600.375,693.4375 L 602.0625,693.375 L 602.5,693.375 L 602.53125,693.375 L 603.21875,693.34375 L 608.875,697.34375 L 611.125,698.34375 L 612.3125,695.28125 L 611,693.28125 L 608.875,691.78125 L 612.9375,690.90625 L 613.8125,688.71875 L 611.9375,687.28125 L 609.625,687.09375 L 609,685.53125 L 606.75,684.84375 L 605.9375,683.65625 L 607.125,683.78125 L 609.75,684.28125 L 612.375,683.28125 L 614.125,680.40625 L 612.25,678.53125 L 609.4375,676.34375 L 606,674.78125 L 602.375,674.53125 L 601.875,676.65625 L 600.5625,675.03125 L 598.625,675.84375 L 597.8125,675.46875 L 597.875,673.90625 L 598.8125,673.03125 L 601.25,673.40625 L 602.9375,673.40625 L 602.32991,671.81557 L 601.0625,671.28125 L 598.25,665.78125 L 597.625,664.84375 L 596.1875,664.46875 L 594.5,662.59375 L 593.4375,660.53125 L 591.125,659.46875 L 588.8125,657.90625 L 588.375,656.71875 L 587.1875,656.09375 z"
       id="Ostergotland" />
    <path
       d="M 558.625,373.03125 L 556.25,376.15625 L 544.75,397.71875 L 549.6875,401.40625 L 552.9375,402.53125 L 553.8125,403.65625 L 553.875,406.53125 L 554.25,416.09375 L 549.9375,424.65625 L 544.8125,422.84375 L 536.25,420.78125 L 534.1875,420.28125 L 527.8125,422.15625 L 523.3125,425.59375 L 516.75,435.40625 L 515.3125,437.09375 L 514.6875,439.65625 L 511.5625,442.96875 L 512.625,448.28125 L 507.1875,457.40625 L 511.375,470.34375 L 508.75,474.40625 L 520.625,471.59375 L 529.5,472.09375 L 529.53125,472.0625 L 535.3125,473 L 537.3125,473.6875 L 537.8125,478.25 L 545.15625,484.8125 L 545.21875,484.78125 L 545.34375,485 L 545.4375,485.0625 L 546.5625,486.75 L 546.1875,488.9375 L 548.5,489.46875 L 548.5,489.5 L 548.65625,489.53125 L 548.6875,489.78125 L 548.71875,489.78125 L 549.375,494.9375 L 552.5,499.75 L 555.9375,504 L 558.375,503.875 L 560.5625,504.875 L 565.90625,499.21875 L 565.40625,496.84375 L 566.59375,496.84375 L 565.90625,493.34375 L 565.84375,490.59375 L 568.46875,490.09375 L 568.46875,489.96875 L 568.5,490.09375 L 571.9375,490.53125 L 573.25,491.96875 L 575.75,490.21875 L 583,489.21875 L 590.875,485.34375 L 594.375,486.15625 L 597,485.03125 L 599.5,485.78125 L 600.0625,482.65625 L 601.625,480.46875 L 605.5625,475.28125 L 613,474.15625 L 604.1875,463.59375 L 594.1875,454.65625 L 594.3125,451.78125 L 592.6875,450.90625 L 591.1875,451.53125 L 590.9375,448.28125 L 590.9375,448.25 L 591.3125,446.09375 L 591.3125,446.0625 L 587.3125,440.96875 L 587.3125,440.9375 L 589,440.3125 L 591.25,441.65625 L 590.90625,434.71875 L 589.90625,433 L 591.125,431.59375 L 590.96875,421.59375 L 579.3971,404.2519 L 582.29419,401.09375 L 579.875,399.03125 L 579.875,397.84375 L 578.625,398.21875 L 578.125,396.90625 L 576.6875,395.96875 L 578.0625,395.03125 L 576.125,391.96875 L 572.4375,390.21875 L 572.1875,387.46875 L 570.625,385.21875 L 568.9375,385.09375 L 567.4375,383.15625 L 567.5625,381.40625 L 566.1875,379.78125 L 565.3125,378.46875 L 564.25,378.09375 L 558.625,373.03125 z M 549.9375,456.71875 L 553.375,457.78125 L 556.1875,458.96875 L 558.3125,460.84375 L 559.75,460.40625 L 562.0625,461.84375 L 559.5625,461.53125 L 559.25,462.78125 L 560.625,463.96875 L 561.6875,464.46875 L 560.4375,465.09375 L 558.875,465.65625 L 559.125,468.40625 L 559.6875,471.6875 L 559.6875,471.71875 L 559.65625,471.71875 L 560.34375,476.65625 L 559.34375,480.28125 L 558.03125,479.46875 L 556.84375,475.90625 L 558.21875,475.59375 L 558.28125,472.34375 L 557.21875,468.71875 L 557.25,468.71875 L 556.8125,466.46875 L 554.8125,464.84375 L 552.3125,463.90625 L 550.6875,462.34375 L 552.8125,462.28125 L 549.9375,456.71875 z"
       id="Jamtland" />
    <path
       d="M 511.75,504.46875 L 507.25,529.15625 L 512.9375,536.78125 L 516.1875,536.65625 L 521.9375,546.84375 L 520.9375,552.09375 L 519.75,554.84375 L 517.8125,556.28125 L 517.125,560.71875 L 517.625,563.03125 L 527.8125,574.71875 L 528.375,577.90625 L 529.625,577.96875 L 530.5,580.84375 L 533.3125,586.03125 L 534.5625,589.78125 L 536.1875,591.03125 L 539,591.34375 L 542.375,598.34375 L 545.0625,602.15625 L 555.75,609.96875 L 562.875,611.15625 L 562.25,606.84375 L 564,605.71875 L 565.25,605.59375 L 569.25,608.34375 L 570.375,608.15625 L 571.6875,610.21875 L 573.8125,611.84375 L 576.3125,614.71875 L 578.0625,617.90625 L 579.9375,615.78125 L 581.0625,613.28125 L 582.9375,613.40625 L 584.5,614.03125 L 585.25,610.65625 L 584.1875,609.15625 L 585.4375,606.71875 L 585.375,605.15625 L 586.3125,604.53125 L 586.875,603.03125 L 589.5,603.65625 L 591.1875,602.21875 L 592.4375,602.59375 L 593.1875,604.46875 L 594.4375,604.65625 L 595.9375,605.59375 L 595.5625,607.46875 L 596.4375,607.90625 L 600.75,607.46875 L 601.75,605.65625 L 603.875,604.21875 L 603.9375,602.78125 L 605.125,602.28125 L 608.625,602.03125 L 606.6875,600.34375 L 606.4375,597.78125 L 605.5,597.28125 L 605.25,595.53125 L 603.9375,594.46875 L 601.1875,593.71875 L 598.8125,589.03125 L 598.25,587.65625 L 597.25,587.34375 L 595.25,583.40625 L 597.4375,582.71875 L 599.25,579.90625 L 598.8125,578.34375 L 600.4375,577.09375 L 601,574.84375 L 597.3125,570.71875 L 595.0625,565.03125 L 590.375,564.53125 L 586.4375,562.28125 L 584.6875,558.96875 L 584.125,554.71875 L 574.75,541.21875 L 570.44746,531.37819 L 567.00379,526.0202 L 565.14062,523.63337 L 563.07813,522.5 L 559.35938,528.04688 L 558.6875,535.53125 L 556.75,537.53125 L 555.5,536.28125 L 552.0625,535.28125 L 547.25,535.03125 L 545.25,534.21875 L 539.125,533.09375 L 538.0625,533.84375 L 536.8125,532.09375 L 537.0625,530.03125 L 535.0625,525.78125 L 530.75,520.53125 L 529.8125,516.21875 L 527.3125,513.40625 L 525.3125,510.53125 L 522.3125,506.46875 L 518.4375,506.65625 L 511.75,504.46875 z M 560.375,564.96875 L 562.25,567.71875 L 563.5625,567.71875 L 567.1875,571.40625 L 568.875,570.34375 L 570.125,569.21875 L 572,570.53125 L 570.5625,572.15625 L 568.8125,572.84375 L 568.4375,576.40625 L 567.125,573.09375 L 563.1875,575.03125 L 561.8125,572.78125 L 559.5,569.71875 L 561.25,569.78125 L 562.3125,569.21875 L 561.1875,568.03125 L 559.5,567.84375 L 559.25,566.09375 L 560.375,564.96875 z"
       id="Dalarna" />
    <path
       d="M 617.875,562.09375 L 612.125,562.84375 L 609.875,563.09375 L 606.3125,563.4375 L 603.125,562.65625 L 598.875,562.71875 L 595.0625,565.03125 L 597.3125,570.71875 L 601,574.84375 L 600.4375,577.09375 L 598.8125,578.34375 L 599.25,579.90625 L 597.4375,582.71875 L 595.25,583.40625 L 597.25,587.34375 L 598.25,587.65625 L 598.8125,589.03125 L 601.1875,593.71875 L 603.9375,594.46875 L 605.25,595.53125 L 605.5,597.28125 L 606.4375,597.78125 L 606.6875,600.34375 L 608.625,602.03125 L 610.375,601.96875 L 612.3125,600.09375 L 611.875,599.09375 L 612.8125,597.96875 L 617.3125,598.71875 L 619.5625,596.78125 L 621.75,589.21875 L 622.6875,580.78125 L 619.5625,579.09375 L 622.4375,576.34375 L 619.9375,573.90625 L 620.625,571.53125 L 618.0625,566.96875 L 619.375,564.65625 L 617.625,563.28125 L 617.875,562.09375 z"
       id="Gastrikland" />
    <path
       d="M 572.3125,636.09375 L 570.625,637.28125 L 570,635.03125 L 568.375,635.40625 L 568.3125,638.15625 L 566.9375,639.84375 L 563.4375,639.59375 L 562.25,640.53125 L 563.4375,642.59375 L 557.8125,643.71875 L 550.6875,657.46875 L 555.09375,656.09375 L 556.375,665.3125 L 560.125,667.09375 L 560.4375,669.40625 L 561.3125,671.46875 L 563.625,670.03125 L 565.0625,666.78125 L 566.625,665.78125 L 566.625,668.21875 L 567.4375,667.96875 L 567.5625,669.59375 L 566.5625,671.65625 L 568.75,670.40625 L 569.25,668.65625 L 570.1875,666.84375 L 571.3125,665.40625 L 572.625,665.34375 L 574.0625,663.59375 L 576.25,664.90625 L 577.4375,664.34375 L 578.1875,665.65625 L 578.6875,663.53125 L 580.6875,663.59375 L 581.75,661.96875 L 580.875,660.40625 L 583.3125,657.71875 L 582.6875,656.71875 L 583.1875,654.65625 L 584.4375,652.59375 L 586.6875,652.28125 L 586.625,650.90625 L 583.875,650.59375 L 582.625,648.78125 L 583.5625,647.34375 L 581.6875,644.90625 L 578.5,646.03125 L 575.125,644.65625 L 575.0625,643.46875 L 578.375,643.59375 L 581.4375,642.59375 L 585.65625,643 L 584.00735,638.78843 L 582.30122,639.00158 L 581.375,637.90625 L 575.0625,637.59375 L 572.3125,636.09375 z"
       id="Narke" />
    <path
       d="M 512.8125,560.71875 L 507.0625,561.96875 L 509.1875,567.96875 L 508.9375,570.03125 L 510,574.84375 L 512.5,579.34375 L 512.3125,581.59375 L 514.25,585.40625 L 514.1875,590.46875 L 511.4375,594.40625 L 512.0625,600.96875 L 511.125,603.40625 L 509.5625,607.65625 L 507.9375,608.84375 L 507.125,610.90625 L 504.125,612.21875 L 502.5625,613.90625 L 500.125,614.21875 L 498.1875,613.40625 L 495.5,615.84375 L 496.9375,618.78125 L 497,621.59375 L 495.5625,623.15625 L 494.8125,624.78125 L 492.125,625.28125 L 490.875,627.59375 L 491.75,632.21875 L 492.25,637.09375 L 493,639.09375 L 492.8125,644.09375 L 498.9375,646.21875 L 503.3125,646.21875 L 505.1875,647.03125 L 507.875,649.15625 L 510.5,649.78125 L 512.125,647.03125 L 513.8125,647.90625 L 515.0625,649.09375 L 515.0625,652.96875 L 518.125,651.90625 L 518.25,653.78125 L 520.375,653.40625 L 521,655.28125 L 522.25,655.34375 L 522.8125,659.90625 L 525.3125,661.40625 L 526.4375,660.40625 L 525.8125,653.28125 L 524.625,648.53125 L 523.25,644.96875 L 524.5625,643.65625 L 524.5625,640.21875 L 525.3125,641.34375 L 526.1875,642.34375 L 527.6875,642.15625 L 527.0625,640.78125 L 527.8125,639.78125 L 530.0625,639.46875 L 531.375,641.09375 L 532.875,644.40625 L 534.6875,642.65625 L 535.375,640.46875 L 537.5,639.53125 L 538.6875,641.53125 L 540.3125,640.09375 L 542,641.53125 L 543.4375,642.46875 L 545.4375,642.40625 L 546.1875,646.65625 L 544.5625,649.84375 L 543.125,652.59375 L 543.0625,655.15625 L 543.875,655.46875 L 544.9375,653.65625 L 546.6875,652.34375 L 547.9375,653.40625 L 547.125,655.46875 L 550.6875,657.46875 L 557.8125,643.71875 L 563.4375,642.59375 L 562.25,640.53125 L 560.9375,637.96875 L 561.5625,635.21875 L 559.9375,633.96875 L 555.875,632.84375 L 555.8125,630.09375 L 555,626.34375 L 555.4375,624.71875 L 554.1875,622.34375 L 555.5,621.53125 L 555.0625,618.96875 L 555.4375,615.40625 L 554.1875,614.84375 L 553.4375,613.15625 L 556.25,612.15625 L 555.75,609.96875 L 545.0625,602.15625 L 542.375,598.34375 L 539,591.34375 L 536.1875,591.03125 L 534.5625,589.78125 L 533.3125,586.03125 L 530.5,580.84375 L 529.625,577.96875 L 528.375,577.90625 L 527.8125,574.71875 L 517.625,563.03125 L 517.125,560.71875 L 515.75,561.15625 L 512.8125,560.71875 z"
       id="Varmland" />
    <path
       d="M 547.125,655.46875 L 544.3125,657.15625 L 544.75,659.40625 L 544.25,661.96875 L 543.25,664.15625 L 541.8125,665.59375 L 540.5625,664.71875 L 536.5,663.90625 L 536,665.40625 L 537.375,666.84375 L 537.625,668.59375 L 538.6875,667.84375 L 540.4375,667.21875 L 541.3125,667.71875 L 540.625,668.84375 L 538.375,670.71875 L 536.75,671.15625 L 534.5625,671.15625 L 532.5,672.40625 L 530.125,673.15625 L 527.9375,674.65625 L 527.25,677.03125 L 526.75,679.15625 L 525.5625,679.96875 L 523.6875,679.65625 L 522.75,678.90625 L 524.1875,674.59375 L 525.125,671.65625 L 524.125,670.78125 L 522.5,670.40625 L 519.8125,674.59375 L 518.1875,676.21875 L 518.25,677.09375 L 516.75,679.46875 L 513.8125,679.90625 L 512,682.03125 L 512.0625,683.09375 L 510.3125,683.78125 L 510.875,681.03125 L 509.4375,680.84375 L 507.3125,683.96875 L 505.9375,683.65625 L 505.0625,684.28125 L 502.84375,683.75 L 498.625,684.15625 L 497.625,686.03125 L 498.0625,687.96875 L 498.6875,688.46875 L 498.8125,689.09375 L 500.3125,689.96875 L 498.625,692.03125 L 498.6875,692.84375 L 498.5625,694.34375 L 498.375,700.46875 L 497.5625,700.90625 L 496.9375,702.65625 L 497.0625,703.28125 L 496.75,703.78125 L 495.875,704.84375 L 494,708.59375 L 494.0625,709.84375 L 494.0625,710.46875 L 494.09375,710.46875 L 492.28125,713.34375 L 491.65625,714 L 491.03125,713.34375 L 490.28125,713.5 L 490,714.59375 L 489.5625,714.75 L 489.125,715.15625 L 489.25,715.40625 L 490.40625,715.15625 L 490.78125,715.40625 L 491.5,715.125 L 492.03125,715.125 L 490.21875,716.15625 L 490.03125,716.53125 L 490.03125,716.90625 L 490.71875,718.96875 L 491.03125,719.03125 L 491.46875,718.28125 L 491.65625,718.71875 L 491.53125,720.78125 L 491.375,721.4375 L 491.375,721.84375 L 493,721.90625 L 493.5625,722.53125 L 496.125,722.09375 L 497.8125,721.53125 L 499.8125,720.34375 L 501.1875,722.09375 L 500.75,723.84375 L 501.125,724.65625 L 501.3125,725.59375 L 501.0625,726.65625 L 501.25,727.21875 L 501.9375,727.46875 L 502.25,727.90625 L 502.5625,729.46875 L 502,732.59375 L 502.8125,733.65625 L 504.3125,737.9375 L 506.96875,737.375 L 508.65625,738.40625 L 513.03125,735.34375 L 517.125,740.53125 L 520.125,742.40625 L 521.375,740.78125 L 521.9375,738.53125 L 522.6875,737.53125 L 523.8125,737.96875 L 524.4375,735.40625 L 526.375,734.96875 L 526.8125,734.09375 L 527.9375,733.84375 L 527.9375,732.71875 L 529.375,731.96875 L 530,730.34375 L 533,725.84375 L 534.125,725.03125 L 534.5625,723.78125 L 534.375,721.65625 L 534.5,720.65625 L 535.6875,720.09375 L 536.0625,718.84375 L 535.375,717.03125 L 535.5,715.71875 L 536.375,714.40625 L 536.4375,710.71875 L 538.5625,711.15625 L 539.25,709.59375 L 540.875,710.28125 L 542,712.21875 L 542.875,712.40625 L 542.8125,710.21875 L 543.875,709.46875 L 544.8125,709.90625 L 545.6875,709.03125 L 545.875,705.65625 L 546.9375,703.84375 L 547.875,700.71875 L 548.4375,697.03125 L 548.625,695.15625 L 549.5,693.28125 L 550.25,689.90625 L 552,687.78125 L 553.1875,685.15625 L 554.5625,682.09375 L 555.5625,681.53125 L 556.625,678.78125 L 556.8125,676.96875 L 556.9375,674.96875 L 558.0625,673.90625 L 560.0625,672.96875 L 561.3125,671.46875 L 560.4375,669.40625 L 560.125,667.09375 L 559.125,665.71875 L 555.125,656.09375 L 550.6875,657.46875 L 547.125,655.46875 z"
       id="Vastergotland" />
    <path
       d="M 498.9375,646.21875 L 492.8125,644.09375 L 491.25,645.28125 L 490.9375,649.15625 L 491.375,650.03125 L 489.5625,652.71875 L 488.625,655.03125 L 488.5625,656.59375 L 487.8125,658.53125 L 489.0625,660.09375 L 489,661.34375 L 488.5625,662.34375 L 488.875,663.03125 L 490.3125,663.34375 L 490.6875,665.34375 L 491.6875,666.15625 L 491.5625,667.53125 L 493.625,668.84375 L 493.125,671.65625 L 491.4375,672.90625 L 491.375,676.40625 L 492.9375,677.34375 L 492,677.90625 L 492.5,679.46875 L 493.0625,680.65625 L 494.0625,680.09375 L 496.6875,681.21875 L 498.23862,682.92186 L 498.56316,684.12336 L 502.79116,683.73959 L 504.41456,680.39356 L 506.3653,679.21627 L 507.9375,677.34375 L 509.0625,675.34375 L 510.5,673.59375 L 511.6875,672.53125 L 511.25,671.71875 L 508.75,671.46875 L 507.6875,670.15625 L 507.625,667.46875 L 509.375,664.78125 L 511.4375,661.65625 L 511.9375,658.15625 L 512.875,656.71875 L 515.0625,652.96875 L 515.0625,649.09375 L 513.8125,647.90625 L 512.125,647.03125 L 510.5,649.78125 L 507.875,649.15625 L 505.1875,647.03125 L 503.3125,646.21875 L 498.9375,646.21875 z"
       id="Dalsland" />
    <path
       d="M 480.4375,648.84375 L 479.5,649.40625 L 478.875,649.71875 L 477.875,649.90625 L 475.6875,653.40625 L 475.625,655.46875 L 475.8125,656.03125 L 476.4375,656.96875 L 476.4375,657.40625 L 476.125,657.53125 L 475.5625,657.28125 L 475.4375,657.46875 L 475.375,658.15625 L 476.1875,660.59375 L 476.3125,661.65625 L 475.9375,665.71875 L 477.625,668.84375 L 478.6875,672.96875 L 477.625,674.40625 L 478.6875,678.90625 L 478.75,679.59375 L 478.875,680.21875 L 478.6875,680.78125 L 478.1875,681.09375 L 477.875,681.03125 L 477.75,680.34375 L 477.25,680.46875 L 477.0625,681.09375 L 477.0625,681.90625 L 477.125,682.53125 L 477.25,683.09375 L 476.5625,683.90625 L 476.6875,684.34375 L 477.5,684.34375 L 478.375,683.84375 L 478.5625,683.34375 L 478.9375,683.40625 L 479.1875,683.84375 L 479.75,684.09375 L 480.5,683.40625 L 480.4375,684.84375 L 481.1875,684.65625 L 480.9375,685.65625 L 480.6875,686.46875 L 481.125,686.78125 L 481.6875,686.90625 L 481.5,687.71875 L 481.0625,688.15625 L 481.125,688.46875 L 482.125,688.34375 L 482.6875,687.84375 L 483.3125,686.96875 L 483.875,686.53125 L 483.875,687.78125 L 483.5,688.34375 L 482.875,689.03125 L 482.25,689.46875 L 481.5,689.59375 L 481.125,690.15625 L 480.4375,691.28125 L 480.625,691.53125 L 481.6875,691.53125 L 482.875,691.28125 L 483.75,690.90625 L 484.375,690.15625 L 484.8125,689.28125 L 485.5625,689.15625 L 486.1875,688.71875 L 486.8125,688.03125 L 487.4375,686.96875 L 488.375,687.03125 L 488.625,686.53125 L 488.1875,685.96875 L 489.125,685.90625 L 490.1875,686.28125 L 491.6875,686.28125 L 490.6875,687.40625 L 490.5,687.96875 L 491.25,689.21875 L 491.6875,690.21875 L 491.6875,691.28125 L 492.4375,691.28125 L 492.375,692.03125 L 491.75,692.65625 L 491.25,692.84375 L 491.375,693.90625 L 491.25,695.09375 L 490.8125,695.84375 L 490.3125,696.53125 L 489.875,697.09375 L 489.9375,698.09375 L 490.0625,699.15625 L 490,700.15625 L 489.625,701.28125 L 488.375,702.59375 L 488.1875,703.09375 L 488.1875,703.71875 L 488.5,704.21875 L 487.625,705.78125 L 487.375,706.65625 L 487.0625,707.28125 L 486.5625,707.90625 L 486.375,708.53125 L 486.6875,709.03125 L 487.1875,709.53125 L 487.375,709.90625 L 487.5,710.90625 L 487.75,711.09375 L 488.5,710.96875 L 489,710.96875 L 488.6875,712.4375 L 487.8125,712.6875 L 486.9375,713.0625 L 486.4375,713.75 L 486.4375,714.1875 L 486.5625,714.5 L 486.9375,715.1875 L 487.375,715.3125 L 487.6875,715.3125 L 488,715.1875 L 488.125,714.5625 L 488.5,714.4375 L 488.875,714.625 L 489.25,715.375 L 489.28125,715.375 L 489.5625,714.71875 L 489.96875,714.59375 L 490.25,713.5 L 491,713.34375 L 491.625,714 L 492.25,713.34375 L 494.03125,710.53125 L 494.0625,710.46875 L 494.0625,710.4375 L 493.96875,708.5625 L 495.875,704.84375 L 496.75,703.78125 L 497.0625,703.28125 L 496.9375,702.65625 L 497.5625,700.90625 L 498.375,700.46875 L 498.5625,694.34375 L 498.6875,692.84375 L 498.625,692.03125 L 500.3125,689.96875 L 498.8125,689.09375 L 498.6875,688.46875 L 498.0625,687.96875 L 497.625,686.03125 L 498.625,684.15625 L 498.25,682.90625 L 496.6875,681.21875 L 494.0625,680.09375 L 493.0625,680.65625 L 492.5,679.46875 L 492,677.90625 L 492.9375,677.34375 L 491.375,676.40625 L 491.4375,672.90625 L 493.125,671.65625 L 493.625,668.84375 L 491.5625,667.53125 L 491.6875,666.15625 L 490.6875,665.34375 L 490.3125,663.34375 L 488.875,663.03125 L 488.5625,662.34375 L 489,661.34375 L 489.0625,660.09375 L 487.8125,658.53125 L 484.25,660.03125 L 483.0625,659.15625 L 482.9375,658.03125 L 483.4375,653.65625 L 481.4375,649.15625 L 480.4375,648.84375 z M 488.5625,687.59375 L 488.0625,687.65625 L 487.25,688.09375 L 487.125,688.78125 L 487.1875,689.46875 L 487,689.96875 L 486.6875,689.96875 L 486.0625,689.84375 L 485.5625,689.96875 L 485,690.59375 L 484.5,691.21875 L 483.8125,691.59375 L 483.3125,691.90625 L 482.5625,692.15625 L 482.1875,692.46875 L 481.6875,692.78125 L 481.0625,692.71875 L 480.4375,692.53125 L 479.75,693.40625 L 479.25,694.53125 L 479.5625,694.40625 L 479.9375,693.84375 L 480.4375,693.96875 L 480.5625,694.46875 L 481,694.96875 L 481.5,695.65625 L 481.875,696.28125 L 481.6875,696.84375 L 481.3125,697.40625 L 481.0625,697.65625 L 481.4375,698.03125 L 481.9375,697.59375 L 482.1875,697.96875 L 482.5625,698.15625 L 483.0625,698.03125 L 483.5625,697.46875 L 484,696.78125 L 484.1875,696.09375 L 484.5625,695.59375 L 485.375,695.09375 L 485.9375,695.40625 L 486.625,695.90625 L 487.0625,696.28125 L 486.9375,696.90625 L 487.5,697.03125 L 488,696.34375 L 488.5,696.03125 L 488.75,695.96875 L 489.4375,695.90625 L 490.3125,695.84375 L 490.5625,695.03125 L 490.6875,693.84375 L 490.625,692.90625 L 490.8125,692.15625 L 491.125,691.34375 L 490.9375,690.71875 L 490.5,690.15625 L 490.0625,689.71875 L 489.625,689.34375 L 489.4375,688.53125 L 489.4375,687.71875 L 488.5625,687.59375 z M 488.8125,696.40625 L 488.75,697.03125 L 488.625,697.65625 L 488.875,697.59375 L 489.1875,697.15625 L 489.25,696.65625 L 488.8125,696.40625 z M 488.3125,696.59375 L 487.9375,697.34375 L 488.4375,697.40625 L 488.3125,696.59375 z M 486.25,696.84375 L 486,697.03125 L 485.5,698.21875 L 485.1875,698.53125 L 484.6875,698.65625 L 483.3125,698.40625 L 482.9375,698.53125 L 482.625,698.78125 L 482.3125,699.40625 L 482.3125,699.84375 L 482.5,700.21875 L 482.9375,700.34375 L 483.9375,700.28125 L 484,700.65625 L 483.9375,700.96875 L 483.25,701.03125 L 483,701.15625 L 482.875,701.59375 L 482.9375,702.21875 L 483.0625,702.53125 L 483.25,702.65625 L 483.6875,702.90625 L 483.6875,703.78125 L 483.8125,704.15625 L 484.625,704.15625 L 484.875,703.71875 L 485.125,703.21875 L 485.4375,702.96875 L 486,702.78125 L 486.375,702.53125 L 486.375,702.21875 L 486.625,701.65625 L 486.8125,700.84375 L 487.3125,700.90625 L 487.375,701.46875 L 487.75,701.46875 L 488.125,701.15625 L 488.375,700.46875 L 488.4375,699.34375 L 488.375,698.53125 L 487.9375,698.03125 L 487.1875,698.53125 L 486.75,698.28125 L 487.0625,697.78125 L 487.1875,697.28125 L 486.6875,696.90625 L 486.25,696.84375 z M 485.4375,705.59375 L 484.4375,705.78125 L 483.5625,706.96875 L 484.3125,707.53125 L 486.125,706.65625 L 486.5,705.65625 L 485.4375,705.59375 z M 483.9375,710.59375 L 483.25,712.90625 L 483.6875,713.09375 L 484.75,711.71875 L 483.9375,710.59375 z M 485.875,712.34375 L 485.4375,712.53125 L 484.9375,712.90625 L 484.875,713.78125 L 484.4375,713.71875 L 484.375,714.15625 L 484.5625,714.34375 L 484.5,714.78125 L 483.875,714.71875 L 483.9375,715.15625 L 485.125,716.09375 L 485.375,715.90625 L 485.5625,715.40625 L 485.5625,714.59375 L 485.875,713.71875 L 486.1875,713.15625 L 485.875,712.34375 z"
       id="Bohuslan" />
    <path
       d="M 653.62029,710.51868 L 654.99529,710.01868 L 656.18329,709.64368 L 656.62029,707.70568 L 657.74529,706.70568 L 659.05829,705.95568 L 660.74529,709.58068 L 661.80829,706.45568 L 662.80829,705.39368 L 666.30829,706.08068 L 667.55829,705.01868 L 667.99529,703.14368 L 669.80829,701.95568 L 671.87029,702.64368 L 673.24529,702.45568 L 673.68329,703.45568 L 672.99529,704.26868 L 671.18329,704.33068 L 669.68329,704.89368 L 669.12029,705.58068 L 669.62029,706.76868 L 668.74529,708.64368 L 667.18329,709.64368 L 666.37029,710.20568 L 666.49529,711.95568 L 664.93329,712.01868 L 664.80829,714.89368 L 662.93329,715.01868 L 661.62029,714.14368 L 661.43329,716.64368 L 660.68329,719.95568 L 661.55829,720.51868 L 661.30829,723.33068 L 660.55829,724.76868 L 661.68329,726.95568 L 663.30829,728.08068 L 664.87029,728.45568 L 664.12029,730.45568 L 662.18329,731.14368 L 660.62029,731.64368 L 658.93329,734.39368 L 658.99529,735.83068 L 660.05829,736.51868 L 659.18329,738.20568 L 656.37029,739.26868 L 655.99529,740.26868 L 652.49529,743.01868 L 653.49529,743.51868 L 650.93329,745.51868 L 651.05829,748.51868 L 652.43329,749.08068 L 650.68329,751.64368 L 647.93329,753.58068 L 646.24529,753.45568 L 647.62029,750.20568 L 647.80829,748.26868 L 649.43329,747.20568 L 650.05829,745.83068 L 649.74529,744.76868 L 648.18329,746.08068 L 647.62029,745.76868 L 647.93329,743.01868 L 646.80829,742.20568 L 646.05829,741.51868 L 646.05829,737.95568 L 644.68329,737.51868 L 644.99529,735.70568 L 646.24529,734.20568 L 646.55829,731.20568 L 645.62029,730.01868 L 645.05829,727.58068 L 644.49529,725.33068 L 644.87029,723.51868 L 646.80829,721.08068 L 648.18329,720.45568 L 649.80829,718.08068 L 651.55829,714.58068 L 652.30829,711.64368 L 653.62029,710.51868 z"
       id="Gotland" />
    <path
       d="M 600.375,693.40625 L 598.75,695.03125 L 596.125,694.34375 L 594.57422,700.50391 L 592.25,700.16406 L 591.875,702.59375 L 593.875,705.53125 L 592.75,706.40625 L 593.9375,710.53125 L 592.75,710.65625 L 590.3125,712.90625 L 589,711.96875 L 587.1875,712.90625 L 586.8125,711.40625 L 584.125,710.53125 L 581.9375,711.03125 L 582.1875,712.40625 L 580.8125,713.65625 L 580.3125,715.28125 L 578.8125,715.03125 L 578.125,715.96875 L 577.8125,718.09375 L 574.5625,717.34375 L 571,717.71875 L 570,715.34375 L 569.125,712.21875 L 569.4375,711.09375 L 567.6875,708.96875 L 567.1875,707.15625 L 568,705.21875 L 568.875,704.15625 L 568.3125,702.65625 L 567.25,698.65625 L 566.0625,698.03125 L 565.125,699.90625 L 561.6875,700.59375 L 561.5,699.15625 L 558,699.71875 L 556.375,699.03125 L 554.625,701.84375 L 554.125,703.78125 L 551.6875,705.34375 L 549.9375,708.40625 L 549.4375,710.59375 L 549.1875,713.28125 L 547.9375,713.40625 L 547.1875,713.96875 L 546.5,713.46875 L 546.75,711.59375 L 546.375,709.65625 L 545.6875,709.03125 L 544.8125,709.90625 L 543.875,709.46875 L 542.8125,710.21875 L 542.875,712.40625 L 542,712.21875 L 540.875,710.28125 L 539.25,709.59375 L 538.5625,711.15625 L 536.4375,710.71875 L 536.375,714.40625 L 535.5,715.71875 L 535.375,717.03125 L 536.0625,718.84375 L 535.6875,720.09375 L 534.5,720.65625 L 534.375,721.65625 L 534.5625,723.78125 L 534.125,725.03125 L 533,725.84375 L 530,730.34375 L 529.375,731.96875 L 527.9375,732.71875 L 527.9375,733.84375 L 526.8125,734.09375 L 526.375,734.96875 L 524.4375,735.40625 L 523.8125,737.96875 L 522.6875,737.53125 L 521.9375,738.53125 L 521.375,740.78125 L 520.125,742.40625 L 518.875,743.34375 L 518.9375,744.84375 L 519.875,747.84375 L 524.875,755.46875 L 523.75,756.53125 L 524.25,760.03125 L 524.25,763.71875 L 525.375,765.15625 L 526.0625,767.46875 L 526.375,768.78125 L 527.0625,769.53125 L 527.75,772.15625 L 527,774.09375 L 527.5625,774.96875 L 527.125,775.96875 L 528.125,776.96875 L 530.1875,777.09375 L 533.5,776.34375 L 535.6875,775.40625 L 537.75,775.46875 L 539.3125,774.65625 L 541.5625,774.65625 L 542.5625,773.03125 L 542.8125,771.78125 L 543.8125,771.71875 L 544.625,772.90625 L 547.25,773.71875 L 547.6875,773.15625 L 551.8125,774.34375 L 554.5625,775.46875 L 556.4375,775.78125 L 558.25,778.15625 L 559.3125,778.65625 L 561.6875,779.09375 L 563.6875,779.96875 L 564.6875,779.09375 L 565.9375,776.53125 L 567.3125,775.53125 L 570.0625,775.53125 L 570.25,776.53125 L 571.75,776.53125 L 572,775.34375 L 573.25,774.53125 L 574.375,775.53125 L 575.4375,774.34375 L 577,773.78125 L 579.1875,774.59375 L 579.4375,773.09375 L 581.3125,773.78125 L 581.9375,775.21875 L 583.1875,775.15625 L 583.625,776.40625 L 584.1875,777.53125 L 585.5625,777.96875 L 587.1875,781.09375 L 588.625,782.09375 L 591.0625,781.96875 L 592.1875,782.78125 L 593.8125,781.96875 L 594.625,778.28125 L 595.5625,775.15625 L 596.625,774.03125 L 597.25,771.90625 L 598.1875,771.53125 L 598.125,769.34375 L 598.4375,767.96875 L 599.5625,765.71875 L 601.4375,765.28125 L 602.5,760.59375 L 603.5625,761.53125 L 604.375,760.59375 L 603.6875,759.40625 L 602.75,759.96875 L 603.5,755.78125 L 604.0625,753.28125 L 603.9375,751.21875 L 604.8125,748.71875 L 607.0625,745.34375 L 604.9375,744.34375 L 604,741.34375 L 604.875,739.53125 L 604.4375,737.28125 L 606.375,735.78125 L 606.0625,733.28125 L 607.8125,733.21875 L 608.75,730.71875 L 609.5625,727.96875 L 609,726.28125 L 606.75,723.59375 L 609,723.34375 L 609.875,722.53125 L 609.875,721.03125 L 608.25,721.65625 L 607.375,720.46875 L 608.0625,718.65625 L 609.5,717.78125 L 609.4375,715.53125 L 607.625,714.28125 L 605.5,711.21875 L 607.125,708.78125 L 609.25,709.21875 L 610.6875,710.40625 L 611.1875,707.65625 L 610.6875,703.90625 L 609.67187,701.75 L 611.1875,700.75 L 609.25902,698.79427 L 608.85937,697.34375 L 603.25,693.34375 L 600.375,693.40625 z"
       id="Smaland" />
    <path
       d="M 618.9375,733.34375 L 617.9375,734.21875 L 616.5625,736.21875 L 616.375,738.53125 L 616.125,740.03125 L 615.125,740.65625 L 615.4375,742.21875 L 614.8125,744.59375 L 613.6875,747.03125 L 612.9375,748.96875 L 611.9375,749.96875 L 611.125,752.21875 L 610.375,755.09375 L 608.875,755.09375 L 607.875,755.96875 L 607,758.71875 L 605.6875,761.40625 L 604.125,765.34375 L 603.6875,767.78125 L 602.375,770.09375 L 602.1875,771.96875 L 602.375,776.71875 L 602.875,776.96875 L 602.75,784.34375 L 603.25,785.15625 L 603.0625,787.53125 L 604.75,786.03125 L 605.5625,783.40625 L 607.1875,779.46875 L 606.8125,777.90625 L 607.875,775.34375 L 608.625,772.46875 L 608.8125,770.34375 L 610.125,768.96875 L 609.9375,767.96875 L 610.375,765.40625 L 612.25,758.53125 L 613.4375,758.21875 L 614.125,756.53125 L 614.0625,755.09375 L 614.625,754.03125 L 614.6875,750.84375 L 616.0625,749.59375 L 615.4375,748.09375 L 616.4375,748.15625 L 617.3125,744.96875 L 618.5625,742.21875 L 619.1875,741.59375 L 619.1875,738.78125 L 618.8125,737.71875 L 619.4375,736.15625 L 620.6875,735.46875 L 620.25,733.65625 L 619.5,734.03125 L 618.9375,733.34375 z"
       id="Oland" />
    <path
       d="M 579.4375,773.09375 L 579.1875,774.59375 L 577,773.78125 L 575.4375,774.34375 L 574.375,775.53125 L 573.25,774.53125 L 572,775.34375 L 571.75,776.53125 L 570.25,776.53125 L 570.0625,775.53125 L 567.3125,775.53125 L 565.9375,776.53125 L 564.6875,779.09375 L 563.6875,779.96875 L 561.6875,779.09375 L 559.3125,778.65625 L 558.25,778.15625 L 556.4375,775.78125 L 554.5625,775.46875 L 553.125,778.03125 L 551.625,778.40625 L 551,780.78125 L 551.5625,782.40625 L 552.0625,783.90625 L 552.25,785.96875 L 553.5625,786.53125 L 555.0625,786.28125 L 555.625,787.46875 L 556.0625,792.78125 L 555.0625,793.28125 L 554.8125,794.59375 L 556.375,795.90625 L 557.8125,796.65625 L 559.4375,796.78125 L 560.9375,795.09375 L 559.375,793.40625 L 558.4375,791.28125 L 558.375,789.34375 L 559.75,789.65625 L 560.8125,789.71875 L 562.75,789.46875 L 565.375,789.34375 L 567.1875,789.28125 L 568.1875,788.15625 L 569.125,789.28125 L 570.875,789.34375 L 573.1875,788.96875 L 574.25,788.59375 L 574.8125,790.59375 L 576.625,789.59375 L 577.25,788.40625 L 578.4375,789.71875 L 579.4375,788.71875 L 581.125,788.09375 L 582,788.71875 L 584.5625,788.28125 L 585.875,789.40625 L 585.4375,790.78125 L 583.8125,792.34375 L 585,792.78125 L 587,791.59375 L 588.6875,793.09375 L 590.25,789.65625 L 591.375,788.90625 L 592.75,786.03125 L 593.8125,781.96875 L 592.1875,782.78125 L 591.0625,781.96875 L 588.625,782.09375 L 587.1875,781.09375 L 585.5625,777.96875 L 584.1875,777.53125 L 583.625,776.40625 L 583.1875,775.15625 L 581.9375,775.21875 L 581.3125,773.78125 L 579.4375,773.09375 z"
       id="Blekinge" />
    <path
       d="M 543.8125,771.71875 L 542.8125,771.78125 L 542.5625,773.03125 L 541.5625,774.65625 L 539.3125,774.65625 L 537.75,775.46875 L 535.6875,775.40625 L 533.5,776.34375 L 530.1875,777.09375 L 528.125,776.96875 L 527.125,775.96875 L 526.1875,776.78125 L 525.125,776.65625 L 523.125,777.84375 L 521.5625,779.34375 L 520.4375,780.46875 L 519.1875,779.40625 L 515.0625,778.71875 L 513.9375,778.40625 L 512.75,777.96875 L 512.9375,774.78125 L 511.4375,775.40625 L 510.1875,774.46875 L 508.5,773.71875 L 507.25,774.21875 L 505.9375,775.28125 L 506.0625,777.09375 L 507.4375,777.53125 L 508.6875,778.65625 L 509.25,780.34375 L 510.5,781.65625 L 511.1875,783.15625 L 510.625,784.53125 L 509.625,785.21875 L 509,785.03125 L 508.125,784.71875 L 507.375,784.71875 L 506.75,783.71875 L 504.75,782.53125 L 502.4375,780.96875 L 501.25,781.09375 L 502.3125,781.96875 L 503.125,783.46875 L 503.4375,784.90625 L 503.875,787.78125 L 504.125,788.59375 L 505,789.59375 L 506,791.21875 L 507.25,792.78125 L 508.25,794.71875 L 508.6875,797.03125 L 510.0625,801.28125 L 511.875,801.71875 L 512.375,803.46875 L 512.5,805.84375 L 512.1875,806.09375 L 511.8125,806.59375 L 512.1875,807.28125 L 512.9375,806.90625 L 513.25,807.59375 L 512.9375,808.09375 L 513.375,808.28125 L 514,808.28125 L 514.9375,809.03125 L 515.375,809.34375 L 515.6875,810.28125 L 515.6875,810.65625 L 515.3125,811.59375 L 515.3125,811.90625 L 515.3125,812.40625 L 515.125,812.96875 L 514.0625,813.21875 L 513.25,813.78125 L 511.875,814.59375 L 511.375,815.09375 L 511.375,815.96875 L 511.5,817.15625 L 512,818.40625 L 512.3125,819.21875 L 512.5625,820.03125 L 512.4375,821.09375 L 512.0625,822.15625 L 511.75,822.71875 L 511.125,822.59375 L 510.375,822.28125 L 510.125,821.28125 L 510,820.96875 L 508.625,823.78125 L 510.1875,823.21875 L 510.6875,823.34375 L 511.0625,823.78125 L 511.5,823.78125 L 511.625,823.40625 L 512,823.21875 L 512.8125,823.03125 L 513.75,823.71875 L 515,824.59375 L 515.625,824.59375 L 516.5625,824.40625 L 519,825.03125 L 520.3125,825.78125 L 520.9375,826.03125 L 521.8125,825.90625 L 522.25,826.40625 L 523.4375,825.65625 L 524.5,825.59375 L 525.375,824.90625 L 526.25,824.59375 L 529.125,824.71875 L 530.625,822.90625 L 532,822.90625 L 532.9375,822.34375 L 535.9375,822.59375 L 537.6875,822.21875 L 538.75,822.65625 L 541.4375,824.71875 L 542.5625,824.59375 L 544.875,824.96875 L 545.375,824.09375 L 546.75,821.59375 L 548.6875,819.53125 L 549.5625,817.78125 L 549.25,815.71875 L 547.875,814.46875 L 547.4375,811.78125 L 545.875,810.71875 L 545.5,807.65625 L 545.8125,804.46875 L 547.75,800.96875 L 548.875,800.40625 L 549.75,798.34375 L 551.75,797.15625 L 552.75,795.28125 L 554.8125,794.59375 L 555.0625,793.28125 L 556.0625,792.78125 L 555.625,787.46875 L 555.0625,786.28125 L 553.5625,786.53125 L 552.25,785.96875 L 552.0625,783.90625 L 551.5625,782.40625 L 551,780.78125 L 551.625,778.40625 L 553.125,778.03125 L 554.5625,775.46875 L 551.8125,774.34375 L 547.6875,773.15625 L 547.25,773.71875 L 544.625,772.90625 L 543.8125,771.71875 z"
       id="Skane" />
    <path
       d="M 499.8125,720.34375 L 497.8125,721.53125 L 496.125,722.09375 L 493.5625,722.53125 L 493,721.90625 L 491.375,721.84375 L 491.375,723.40625 L 491.4375,724.65625 L 490.75,726.46875 L 490.5,727.34375 L 490.625,728.09375 L 491.4375,730.34375 L 491.8125,731.15625 L 492.4375,731.46875 L 492.875,731.21875 L 493.1875,730.53125 L 493.8125,728.28125 L 494.1875,727.15625 L 494.6875,726.65625 L 495.1875,726.96875 L 495.375,727.96875 L 495.3125,730.15625 L 494.625,731.84375 L 494.9375,732.28125 L 495.8125,732.09375 L 496.1875,732.53125 L 496.375,734.09375 L 496.5,735.34375 L 495.25,735.96875 L 495.125,737.78125 L 496.625,739.71875 L 497.8125,741.78125 L 498,744.40625 L 498.75,746.28125 L 499.875,747.09375 L 500.5625,748.71875 L 500.5625,749.96875 L 500.125,751.40625 L 501.375,752.96875 L 503.25,753.71875 L 505.1875,755.28125 L 506.625,756.59375 L 506.5,758.84375 L 507.3125,761.34375 L 508.125,763.28125 L 509.125,765.46875 L 510.5625,765.53125 L 512,764.65625 L 513.5,765.53125 L 514.1875,767.90625 L 514.5,769.96875 L 514.3125,772.21875 L 513.8125,773.59375 L 512.9375,774.78125 L 512.75,777.96875 L 513.9375,778.40625 L 515.0625,778.71875 L 519.1875,779.40625 L 520.4375,780.46875 L 521.5625,779.34375 L 523.125,777.84375 L 525.125,776.65625 L 526.1875,776.78125 L 527.125,775.96875 L 527.5625,774.96875 L 527,774.09375 L 527.75,772.15625 L 527.0625,769.53125 L 526.375,768.78125 L 526.0625,767.46875 L 525.375,765.15625 L 524.25,763.71875 L 524.25,760.03125 L 523.75,756.53125 L 524.875,755.46875 L 519.875,747.84375 L 518.9375,744.84375 L 518.875,743.34375 L 520.125,742.40625 L 517.125,740.53125 L 513.0625,735.3125 L 508.6875,738.40625 L 506.875,737.34375 L 504.3125,737.9375 L 502.8125,733.65625 L 502,732.59375 L 502.5625,729.46875 L 502.25,727.90625 L 501.9375,727.46875 L 501.25,727.21875 L 501.0625,726.65625 L 501.3125,725.59375 L 501.125,724.65625 L 500.75,723.84375 L 501.1875,722.09375 L 499.8125,720.34375 z"
       id="Halland" />
    <path
       d="M 585.43831,400.2874 L 583.93831,401.0999 L 582.26912,401.12023 L 579.37581,404.25615 L 590.96956,421.63115 L 591.12581,431.63115 L 589.90706,433.0374 L 590.90706,434.75615 L 591.25081,441.69365 L 589.00081,440.3499 L 587.31331,440.9749 L 591.31331,446.0999 L 590.93831,448.2874 L 591.18831,451.5374 L 592.68831,450.9124 L 594.31331,451.7874 L 594.18831,454.6624 L 604.18831,463.5999 L 613.00081,474.1624 L 616.37581,478.4749 L 621.87581,484.4749 L 622.43831,486.0374 L 625.12581,489.5374 L 627.00081,490.2249 L 627.18831,492.4124 L 629.18831,494.2874 L 631.31331,495.4749 L 632.50081,491.9124 L 635.75081,489.2874 L 633.81331,487.6624 L 635.31331,486.3499 L 637.50081,482.7874 L 634.62581,483.0374 L 634.31331,481.4124 L 637.00081,481.9749 L 639.93831,478.8499 L 638.62581,477.5999 L 639.68831,476.6624 L 642.12581,478.4124 L 644.25081,474.7249 L 645.25081,471.4749 L 641.75081,470.9749 L 642.18831,469.5999 L 643.93831,469.4749 L 644.18831,467.2874 L 646.25081,462.9749 L 648.62581,463.0374 L 653.00081,459.9749 L 654.81331,461.1624 L 656.37581,459.0999 L 656.50081,455.2249 L 658.81331,454.5999 L 659.56331,448.0999 L 661.81331,448.5999 L 663.62581,447.7249 L 662.18831,444.8499 L 663.12581,443.4749 L 665.62581,445.7249 L 667.62581,449.2874 L 669.25081,448.0374 L 668.50081,445.5999 L 669.06331,444.5374 L 668.25081,442.7874 L 668.87581,441.7249 L 668.06331,439.7874 L 668.87581,437.9124 L 668.87581,434.5374 L 667.00081,431.9749 L 665.06331,431.4124 L 663.62581,429.2249 L 662.31331,424.2874 L 659.93831,421.5999 L 659.31331,420.1624 L 655.37581,417.5374 L 647.75081,421.0374 L 639.93831,424.4124 L 626.37581,430.2249 L 617.18831,428.7874 L 608.68831,427.1624 L 606.18831,424.4749 L 595.56331,412.5999 L 592.06331,412.9749 L 592.00081,409.5999 L 586.56331,405.9749 L 586.37581,403.0999 L 585.43831,400.2874 z"
       id="Angermanland" />
    <path
       d="M 520.59375,471.46875 L 508.53125,474.46875 L 509.25,481.65625 L 509.25,481.6875 L 507.1875,487.8125 L 511.75,504.46875 L 518.4375,506.65625 L 522.3125,506.46875 L 525.3125,510.53125 L 527.3125,513.40625 L 529.8125,516.21875 L 530.75,520.53125 L 535.0625,525.78125 L 537.0625,530.03125 L 536.8125,532.09375 L 538.0625,533.84375 L 539.125,533.09375 L 545.25,534.21875 L 547.25,535.03125 L 552.0625,535.28125 L 555.5,536.28125 L 556.75,537.53125 L 558.6875,535.53125 L 559.375,528.09375 L 563.0625,522.53125 L 565.125,523.65625 L 565.4375,524.0625 L 565.1875,523.6875 L 566.5,518.6875 L 566.375,515.03125 L 565.65625,508.96875 L 569.78125,504 L 568.9375,503.46875 L 567.3125,499.59375 L 565.9375,499.21875 L 560.5625,504.875 L 558.375,503.875 L 555.9375,504 L 552.5,499.75 L 549.375,494.9375 L 548.71875,489.78125 L 548.625,489.75 L 548.5,489.46875 L 546.1875,488.9375 L 546.5625,486.75 L 545.4375,485.0625 L 545.15625,484.8125 L 537.8125,478.25 L 537.3125,473.6875 L 535.3125,473 L 529.53125,472.0625 L 520.59375,471.46875 z"
       id="Harjedalen" />
    <path
       d="M 613,474.15625 L 605.5625,475.28125 L 601.625,480.46875 L 600.0625,482.65625 L 599.5,485.78125 L 597,485.03125 L 594.375,486.15625 L 590.875,485.34375 L 583,489.21875 L 575.75,490.21875 L 573.25,491.96875 L 571.9375,490.53125 L 568.5,490.09375 L 565.875,490.59375 L 565.9375,493.34375 L 566.625,496.84375 L 565.4375,496.84375 L 565.9375,499.21875 L 567.3125,499.59375 L 568.93198,503.46323 L 569.77904,504.00842 L 572.95862,507.09538 L 575.71274,507.47601 L 579.42103,504.49096 L 583.63258,504.19676 L 592.1875,506.09375 L 593,507.03125 L 596.875,506.84375 L 602.8125,507.03125 L 608.9375,508.53125 L 611.375,509.96875 L 612.75,509.71875 L 615.4375,510.46875 L 616.5,509.84375 L 618.5625,510.78125 L 620.5,510.46875 L 623.8125,511.34375 L 624.75,509.03125 L 626.625,508.53125 L 627.25,506.46875 L 623.9375,505.53125 L 622.1875,502.71875 L 622.5625,500.96875 L 624.25,500.46875 L 623.75,496.78125 L 621.5,495.96875 L 621.4375,494.71875 L 623.3125,493.96875 L 624.9375,497.28125 L 628.125,497.96875 L 627.625,495.71875 L 629.1875,494.28125 L 627.1875,492.40625 L 627,490.21875 L 625.125,489.53125 L 622.4375,486.03125 L 621.875,484.46875 L 616.375,478.46875 L 613,474.15625 z"
       id="Medelpad" />
    <path
       d="M 569.78029,504.00307 L 565.65529,508.97182 L 566.37404,515.03432 L 566.49904,518.69057 L 565.18654,523.69057 L 570.43654,531.31557 L 574.74904,541.22182 L 584.12404,554.72182 L 584.68654,558.97182 L 586.43654,562.28432 L 590.37404,564.53432 L 595.06154,565.03432 L 598.87404,562.72182 L 603.12404,562.65932 L 606.31154,563.44057 L 609.87404,563.09682 L 612.12404,562.84682 L 617.87404,562.09682 L 617.18654,555.40932 L 618.74904,553.84682 L 619.49904,550.90932 L 616.74904,547.72182 L 616.37404,545.34682 L 617.93654,542.59682 L 616.43654,539.22182 L 617.74904,536.78432 L 618.81154,534.22182 L 619.74904,531.97182 L 622.06154,532.90932 L 622.87404,534.59682 L 624.24904,535.09682 L 624.93654,531.15932 L 622.87404,530.28432 L 622.12404,529.03432 L 622.18654,526.28432 L 620.62404,524.59682 L 621.43654,520.47182 L 623.06154,517.65932 L 623.81154,511.34682 L 620.49904,510.47182 L 618.56154,510.78432 L 616.49904,509.84682 L 615.43654,510.47182 L 612.74904,509.72182 L 611.37404,509.97182 L 608.93654,508.53432 L 602.81154,507.03432 L 596.87404,506.84682 L 592.99904,507.03432 L 592.18654,506.09682 L 583.62404,504.22182 L 579.40529,504.53432 L 575.71779,507.47182 L 572.96779,507.09682 L 569.78029,504.00307 z"
       id="Halsingland" />
  </g>
</svg>
